<svg width="109" height="36" viewBox="0 0 89 16" fill="none" xmlns="http://www.w3.org/2000/svg">
<path d="M8.02 15.22C6.99333 15.22 6.02667 15.0333 5.12 14.66C4.22667 14.2867 3.44667 13.7733 2.78 13.12C2.11333 12.4533 1.58667 11.68 1.2 10.8C0.826667 9.90667 0.64 8.94667 0.64 7.92C0.64 6.89333 0.833333 5.94 1.22 5.06C1.60667 4.18 2.14 3.41333 2.82 2.76C3.51333 2.09333 4.32 1.58 5.24 1.22C6.16 0.846666 7.14667 0.66 8.2 0.66C9.41333 0.66 10.5133 0.88 11.5 1.32C12.5 1.76 13.3267 2.36667 13.98 3.14L11.84 5.28C11.3867 4.69333 10.8533 4.25333 10.24 3.96C9.62667 3.66667 8.93333 3.52 8.16 3.52C7.33333 3.52 6.59333 3.70667 5.94 4.08C5.28667 4.44 4.77333 4.95333 4.4 5.62C4.04 6.27333 3.86 7.04 3.86 7.92C3.86 8.8 4.04 9.57333 4.4 10.24C4.76 10.9067 5.25333 11.4267 5.88 11.8C6.50667 12.1733 7.22667 12.36 8.04 12.36C8.86667 12.36 9.56667 12.2067 10.14 11.9C10.7267 11.58 11.1733 11.1267 11.48 10.54C11.8 9.94 11.96 9.21333 11.96 8.36L14.04 9.76L7.74 9.66V7H15.16V7.46C15.16 9.15333 14.8533 10.58 14.24 11.74C13.64 12.8867 12.8 13.7533 11.72 14.34C10.6533 14.9267 9.42 15.22 8.02 15.22ZM20.8431 15.2C19.9498 15.2 19.1498 14.98 18.4431 14.54C17.7498 14.1 17.1965 13.5 16.7831 12.74C16.3831 11.98 16.1831 11.1133 16.1831 10.14C16.1831 9.16667 16.3831 8.3 16.7831 7.54C17.1965 6.78 17.7498 6.18 18.4431 5.74C19.1498 5.3 19.9498 5.08 20.8431 5.08C21.4965 5.08 22.0831 5.20667 22.6031 5.46C23.1365 5.71333 23.5698 6.06667 23.9031 6.52C24.2365 6.96 24.4231 7.46667 24.4631 8.04V12.24C24.4231 12.8133 24.2365 13.3267 23.9031 13.78C23.5831 14.22 23.1565 14.5667 22.6231 14.82C22.0898 15.0733 21.4965 15.2 20.8431 15.2ZM21.4631 12.44C22.1165 12.44 22.6431 12.2267 23.0431 11.8C23.4431 11.36 23.6431 10.8067 23.6431 10.14C23.6431 9.68667 23.5498 9.28667 23.3631 8.94C23.1898 8.59333 22.9365 8.32667 22.6031 8.14C22.2831 7.94 21.9098 7.84 21.4831 7.84C21.0565 7.84 20.6765 7.94 20.3431 8.14C20.0231 8.32667 19.7631 8.59333 19.5631 8.94C19.3765 9.28667 19.2831 9.68667 19.2831 10.14C19.2831 10.58 19.3765 10.9733 19.5631 11.32C19.7498 11.6667 20.0098 11.94 20.3431 12.14C20.6765 12.34 21.0498 12.44 21.4631 12.44ZM23.5231 15V12.38L23.9831 10.02L23.5231 7.66V5.28H26.5231V15H23.5231ZM30.0577 15V1.26H33.1177V15H30.0577ZM27.8577 7.88V5.28H35.3177V7.88H27.8577ZM43.0859 15V9.46C43.0859 8.95333 42.9259 8.54667 42.6059 8.24C42.2993 7.92 41.9059 7.76 41.4259 7.76C41.0926 7.76 40.7993 7.83333 40.5459 7.98C40.2926 8.11333 40.0926 8.31333 39.9459 8.58C39.7993 8.83333 39.7259 9.12667 39.7259 9.46L38.5459 8.88C38.5459 8.12 38.7059 7.45333 39.0259 6.88C39.3459 6.30667 39.7926 5.86667 40.3659 5.56C40.9393 5.24 41.5993 5.08 42.3459 5.08C43.1059 5.08 43.7726 5.24 44.3459 5.56C44.9193 5.86667 45.3593 6.3 45.6659 6.86C45.9859 7.40667 46.1459 8.04667 46.1459 8.78V15H43.0859ZM36.6659 15V0.48H39.7259V15H36.6659ZM52.9112 15.22C51.8579 15.22 50.9179 15.0067 50.0913 14.58C49.2779 14.14 48.6379 13.5333 48.1713 12.76C47.7046 11.9867 47.4713 11.1133 47.4713 10.14C47.4713 9.16667 47.6979 8.3 48.1513 7.54C48.6179 6.76667 49.2446 6.16 50.0313 5.72C50.8179 5.28 51.7046 5.06 52.6913 5.06C53.6513 5.06 54.4979 5.26667 55.2313 5.68C55.9646 6.09333 56.5379 6.66667 56.9513 7.4C57.3779 8.13333 57.5912 8.97333 57.5912 9.92C57.5912 10.0933 57.5779 10.28 57.5513 10.48C57.5379 10.6667 57.5046 10.8867 57.4513 11.14L49.0713 11.16V9.06L56.1513 9.04L54.8313 9.92C54.8179 9.36 54.7313 8.9 54.5713 8.54C54.4113 8.16667 54.1713 7.88667 53.8513 7.7C53.5446 7.5 53.1646 7.4 52.7113 7.4C52.2313 7.4 51.8113 7.51333 51.4513 7.74C51.1046 7.95333 50.8313 8.26 50.6313 8.66C50.4446 9.06 50.3513 9.54667 50.3513 10.12C50.3513 10.6933 50.4513 11.1867 50.6513 11.6C50.8646 12 51.1579 12.3133 51.5313 12.54C51.9179 12.7533 52.3713 12.86 52.8913 12.86C53.3713 12.86 53.8046 12.78 54.1913 12.62C54.5779 12.4467 54.9179 12.1933 55.2113 11.86L56.8913 13.54C56.4113 14.1 55.8313 14.52 55.1513 14.8C54.4713 15.08 53.7246 15.22 52.9112 15.22ZM59.0683 15V5.28H62.1283V15H59.0683ZM62.1283 9.66L60.8483 8.66C61.1016 7.52667 61.5283 6.64667 62.1283 6.02C62.7283 5.39333 63.5616 5.08 64.6283 5.08C65.0949 5.08 65.5016 5.15333 65.8483 5.3C66.2083 5.43333 66.5216 5.64667 66.7883 5.94L64.9683 8.24C64.8349 8.09333 64.6683 7.98 64.4683 7.9C64.2683 7.82 64.0416 7.78 63.7883 7.78C63.2816 7.78 62.8749 7.94 62.5683 8.26C62.2749 8.56667 62.1283 9.03333 62.1283 9.66ZM71.695 15V1.08H74.835V15H71.695ZM67.275 3.62V0.879999H79.255V3.62H67.275ZM83.0842 15.22C82.0842 15.22 81.1776 15 80.3642 14.56C79.5642 14.1067 78.9309 13.4933 78.4642 12.72C77.9976 11.9467 77.7642 11.08 77.7642 10.12C77.7642 9.16 77.9976 8.3 78.4642 7.54C78.9309 6.78 79.5642 6.18 80.3642 5.74C81.1642 5.28667 82.0709 5.06 83.0842 5.06C84.0976 5.06 85.0042 5.28 85.8042 5.72C86.6042 6.16 87.2376 6.76667 87.7042 7.54C88.1709 8.3 88.4042 9.16 88.4042 10.12C88.4042 11.08 88.1709 11.9467 87.7042 12.72C87.2376 13.4933 86.6042 14.1067 85.8042 14.56C85.0042 15 84.0976 15.22 83.0842 15.22ZM83.0842 12.44C83.5242 12.44 83.9109 12.3467 84.2442 12.16C84.5776 11.96 84.8309 11.6867 85.0042 11.34C85.1909 10.98 85.2842 10.5733 85.2842 10.12C85.2842 9.66667 85.1909 9.27333 85.0042 8.94C84.8176 8.59333 84.5576 8.32667 84.2242 8.14C83.9042 7.94 83.5242 7.84 83.0842 7.84C82.6576 7.84 82.2776 7.94 81.9442 8.14C81.6109 8.32667 81.3509 8.59333 81.1642 8.94C80.9776 9.28667 80.8842 9.68667 80.8842 10.14C80.8842 10.58 80.9776 10.98 81.1642 11.34C81.3509 11.6867 81.6109 11.96 81.9442 12.16C82.2776 12.3467 82.6576 12.44 83.0842 12.44Z" fill="white"/>
</svg>
