<svg width="1000" height="700" viewBox="0 0 314 246" fill="none" xmlns="http://www.w3.org/2000/svg">
  <path d="M21.504 135.352C17.92 135.352 14.8053 134.029 12.16 131.384C9.6 128.824 8.32 125.752 8.32 122.168C8.32 118.499 9.6 115.384 12.16 112.824C14.8053 110.179 17.92 108.856 21.504 108.856C25.1733 108.856 28.288 110.179 30.848 112.824C33.408 115.384 34.688 118.499 34.688 122.168C34.688 125.752 33.408 128.824 30.848 131.384C28.288 134.029 25.1733 135.352 21.504 135.352Z" fill="#010101"/>
  <path d="M58.136 67.88H34.84V51.752H99.864V67.88H76.824V137H58.136V67.88ZM132.284 138.92C125.628 138.92 119.74 137.469 114.62 134.568C109.585 131.667 105.66 127.613 102.844 122.408C100.028 117.117 98.62 111.016 98.62 104.104C98.62 97.192 99.9853 91.1333 102.716 85.928C105.532 80.6373 109.457 76.5413 114.492 73.64C119.612 70.7387 125.5 69.288 132.156 69.288C138.812 69.288 144.657 70.7387 149.692 73.64C154.812 76.456 158.737 80.4667 161.468 85.672C164.284 90.8773 165.692 96.8933 165.692 103.72C165.692 110.632 164.284 116.776 161.468 122.152C158.737 127.443 154.812 131.581 149.692 134.568C144.657 137.469 138.855 138.92 132.284 138.92ZM132.156 123.304C136.764 123.304 140.433 121.555 143.164 118.056C145.98 114.472 147.388 109.779 147.388 103.976C147.388 98.1733 145.98 93.5653 143.164 90.152C140.433 86.6533 136.764 84.904 132.156 84.904C127.548 84.904 123.836 86.6533 121.02 90.152C118.289 93.5653 116.924 98.1733 116.924 103.976C116.924 109.779 118.289 114.472 121.02 118.056C123.836 121.555 127.548 123.304 132.156 123.304Z" fill="white"/>
</svg>
